<svg width="8" height="8" viewBox="0 0 8 8" fill="none" xmlns="http://www.w3.org/2000/svg">
<path d="M4.77061 3.99831L1.77783 6.99122C1.69542 7.07343 1.65009 7.18335 1.65009 7.30055C1.65009 7.41782 1.69542 7.52767 1.77783 7.61002L2.04007 7.87213C2.12235 7.9546 2.23233 8 2.34954 8C2.46674 8 2.57659 7.9546 2.65894 7.87213L6.22232 4.30881C6.30498 4.22621 6.35025 4.11584 6.34993 3.9985C6.35025 3.88065 6.30505 3.77041 6.22232 3.68774L2.66225 0.12787C2.57991 0.0453989 2.47006 2.98023e-07 2.35279 2.98023e-07C2.23559 2.98023e-07 2.12573 0.0453989 2.04333 0.12787L1.78115 0.389984C1.61055 0.560586 1.61055 0.838309 1.78115 1.00885L4.77061 3.99831Z" fill="black"/>
</svg>
