<svg width="14" height="14" viewBox="0 0 14 14" fill="none" xmlns="http://www.w3.org/2000/svg">
<path d="M5.65143 7.00296L10.8888 1.76537C11.033 1.6215 11.1123 1.42914 11.1123 1.22403C11.1123 1.01881 11.033 0.826569 10.8888 0.682472L10.4299 0.223772C10.2859 0.0794472 10.0934 0 9.88831 0C9.6832 0 9.49096 0.0794472 9.34686 0.223772L3.11094 6.45958C2.96627 6.60413 2.88705 6.79728 2.88762 7.00262C2.88705 7.20886 2.96616 7.40179 3.11094 7.54646L9.34105 13.7762C9.48515 13.9206 9.6774 14 9.88262 14C10.0877 14 10.28 13.9206 10.4242 13.7762L10.883 13.3175C11.1815 13.019 11.1815 12.533 10.883 12.2345L5.65143 7.00296Z" fill="black"/>
</svg>
