<svg width="12" height="10" viewBox="0 0 12 10" fill="none" xmlns="http://www.w3.org/2000/svg">
<path d="M11.4014 9.35672H3.37708C3.04636 9.35672 2.77831 9.08867 2.77831 8.75795C2.77831 8.42723 3.04636 8.15918 3.37708 8.15918H11.4012C11.7319 8.15918 12 8.42723 12 8.75795C12 9.08867 11.7321 9.35672 11.4014 9.35672Z" fill="black"/>
<path d="M11.4014 5.59891H3.37708C3.04636 5.59891 2.77831 5.33086 2.77831 5.00014C2.77831 4.66942 3.04636 4.40137 3.37708 4.40137H11.4012C11.7319 4.40137 12 4.66942 12 5.00014C12.0002 5.33086 11.7321 5.59891 11.4014 5.59891Z" fill="black"/>
<path d="M11.4014 1.84012H3.37708C3.04636 1.84012 2.77831 1.57207 2.77831 1.24135C2.77831 0.910629 3.04636 0.642578 3.37708 0.642578H11.4012C11.7319 0.642578 12 0.910629 12 1.24135C12 1.57207 11.7321 1.84012 11.4014 1.84012Z" fill="black"/>
<path d="M0.804151 2.0917C1.24827 2.0917 1.6083 1.73167 1.6083 1.28755C1.6083 0.84343 1.24827 0.483398 0.804151 0.483398C0.360031 0.483398 0 0.84343 0 1.28755C0 1.73167 0.360031 2.0917 0.804151 2.0917Z" fill="black"/>
<path d="M0.804151 5.80361C1.24827 5.80361 1.6083 5.44358 1.6083 4.99946C1.6083 4.55534 1.24827 4.19531 0.804151 4.19531C0.360031 4.19531 0 4.55534 0 4.99946C0 5.44358 0.360031 5.80361 0.804151 5.80361Z" fill="black"/>
<path d="M0.804151 9.51651C1.24827 9.51651 1.6083 9.15648 1.6083 8.71235C1.6083 8.26823 1.24827 7.9082 0.804151 7.9082C0.360031 7.9082 0 8.26823 0 8.71235C0 9.15648 0.360031 9.51651 0.804151 9.51651Z" fill="black"/>
</svg>
