<svg width="20" height="20" viewBox="0 0 20 20" fill="none" xmlns="http://www.w3.org/2000/svg">
<path d="M17.3048 0H2.6951C1.2067 0 6.10352e-05 1.20659 6.10352e-05 2.69504V17.3049C6.10352e-05 18.7933 1.20665 19.9999 2.6951 19.9999H9.90055L9.91283 12.853H8.05607C7.81477 12.853 7.61892 12.6579 7.61799 12.4166L7.60909 10.1129C7.60816 9.87025 7.8046 9.67308 8.04722 9.67308H9.9006V7.44709C9.9006 4.86384 11.4783 3.45724 13.7827 3.45724H15.6737C15.9156 3.45724 16.1118 3.65339 16.1118 3.89537V5.83789C16.1118 6.07978 15.9157 6.27587 15.6739 6.27602L14.5135 6.27655C13.2602 6.27655 13.0176 6.87207 13.0176 7.74602V9.67313H15.7713C16.0337 9.67313 16.2373 9.90225 16.2064 10.1628L15.9333 12.4666C15.9072 12.687 15.7202 12.8531 15.4983 12.8531H13.0298L13.0176 20H17.3049C18.7933 20 19.9999 18.7934 19.9999 17.305V2.69504C19.9999 1.20659 18.7933 0 17.3048 0Z" fill="#1874EC"/>
</svg>
