<svg width="28" height="28" viewBox="0 0 28 28" fill="none" xmlns="http://www.w3.org/2000/svg">
<path d="M22.316 12.8521H13.888C13.4643 12.8521 13.1208 13.1955 13.1208 13.6192C13.1208 14.043 13.4643 14.3864 13.888 14.3864H22.316C22.7397 14.3864 23.0832 14.043 23.0832 13.6192C23.0832 13.1955 22.7397 12.8521 22.316 12.8521Z" fill="black"/>
<path d="M7.69589 15.5272C7.30536 15.9177 6.6722 15.9177 6.28167 15.5272L5.45438 14.6999C5.15461 14.4001 5.15523 13.9139 5.45578 13.6149C5.75523 13.317 6.2393 13.3176 6.53798 13.6163L6.98878 14.0671L8.97118 12.0847C9.27095 11.7849 9.75718 11.7856 10.0562 12.0861C10.3541 12.3856 10.3535 12.8696 10.0548 13.1683L7.69589 15.5272Z" fill="black"/>
<path d="M22.316 6.72021H13.888C13.4643 6.72021 13.1208 7.0637 13.1208 7.48741C13.1208 7.91113 13.4643 8.25461 13.888 8.25461H22.316C22.7397 8.25461 23.0832 7.91113 23.0832 7.48741C23.0832 7.0637 22.7397 6.72021 22.316 6.72021Z" fill="black"/>
<path d="M7.69589 9.39537C7.30536 9.78589 6.6722 9.78589 6.28167 9.39537L5.45438 8.56808C5.15461 8.2683 5.15523 7.78208 5.45578 7.48308C5.75523 7.18517 6.2393 7.18579 6.53798 7.48448L6.98878 7.93527L8.97118 5.95287C9.27095 5.6531 9.75718 5.65372 10.0562 5.95427C10.3541 6.25373 10.3535 6.73779 10.0548 7.03647L7.69589 9.39537Z" fill="black"/>
<path d="M22.316 18.9844H13.888C13.4643 18.9844 13.1208 19.3279 13.1208 19.7516C13.1208 20.1753 13.4643 20.5188 13.888 20.5188H22.316C22.7397 20.5188 23.0832 20.1753 23.0832 19.7516C23.0832 19.3279 22.7397 18.9844 22.316 18.9844Z" fill="black"/>
<path d="M7.69493 21.66C7.30478 22.0501 6.67235 22.0506 6.28167 21.6609L5.45548 20.837C5.15499 20.5373 5.15466 20.0507 5.45474 19.7506C5.75454 19.4508 6.24061 19.4508 6.54041 19.7506L6.98878 20.1989L8.97118 18.2165C9.27095 17.9168 9.75718 17.9174 10.0562 18.2179C10.3541 18.5174 10.3535 19.0015 10.0548 19.3001L7.69493 21.66Z" fill="black"/>
</svg>
