<svg width="146" height="24" viewBox="0 0 146 24" fill="none" xmlns="http://www.w3.org/2000/svg">
<path d="M0 23.6915V1.23393H7.68183C10.3429 1.23393 12.3612 1.75835 13.7369 2.8072C15.1126 3.84576 15.8005 5.37275 15.8005 7.38818C15.8005 8.48843 15.5243 9.46015 14.972 10.3033C14.4198 11.1362 13.6516 11.7481 12.6675 12.1388C13.7922 12.4267 14.6758 13.0077 15.3185 13.8817C15.9712 14.7558 16.2975 15.8252 16.2975 17.09C16.2975 19.2494 15.6247 20.8843 14.2792 21.9949C12.9336 23.1054 11.0156 23.671 8.52533 23.6915H0ZM4.51872 13.9126V19.9743H8.38977C9.45418 19.9743 10.2826 19.7172 10.8751 19.2031C11.4776 18.6787 11.7788 17.9589 11.7788 17.0437C11.7788 14.9871 10.7395 13.9434 8.66089 13.9126H4.51872ZM4.51872 10.6427H7.86258C10.142 10.6015 11.2817 9.67095 11.2817 7.8509C11.2817 6.83291 10.9905 6.10283 10.4081 5.66067C9.83576 5.20823 8.92699 4.98201 7.68183 4.98201H4.51872V10.6427Z" fill="#F2C94C"/>
<path d="M60.2195 16.9974L58.653 18.6015V23.6915H54.3V0H58.653V13.126L59.4965 12.0154L63.6688 7.00257H68.8955L63.0061 13.9589L69.4076 23.6915H64.4069L60.2195 16.9974Z" fill="#F2C94C"/>
<path d="M75.5832 19.9743H85.178V23.6915H71.0645V1.23393H75.5832V19.9743Z" fill="#F2C94C"/>
<path d="M86.8198 15.1928C86.8198 13.5373 87.1311 12.0617 87.7536 10.7661C88.3762 9.47044 89.2699 8.46787 90.4347 7.75836C91.6096 7.04884 92.9703 6.69409 94.5167 6.69409C96.7158 6.69409 98.5082 7.38303 99.8939 8.76093C101.29 10.1388 102.068 12.0103 102.229 14.3753L102.259 15.5167C102.259 18.0771 101.561 20.1337 100.165 21.6864C98.7693 23.2288 96.8965 24 94.5468 24C92.197 24 90.3193 23.2288 88.9134 21.6864C87.5177 20.144 86.8198 18.0463 86.8198 15.3933V15.1928ZM91.1728 15.5167C91.1728 17.1003 91.464 18.3136 92.0464 19.1568C92.6288 19.9897 93.4623 20.4062 94.5468 20.4062C95.6012 20.4062 96.4246 19.0694 97.017 18.2468C97.0132 16.5 94.5468 16.7969 94.5468 14.9769C94.5468 13.4242 97.0132 13 97.017 12C96.4246 11.1465 95.5911 10.3033 94.5167 10.3033C93.4523 10.3033 92.6288 10.7301 92.0464 11.5835C91.464 12.4267 91.1728 13.7378 91.1728 15.5167Z" fill="#F2C94C"/>
<path d="M110.799 18.2468L113.827 7.00257H118.376L112.878 23.6915H108.721L103.223 7.00257H107.772L110.799 18.2468Z" fill="#F2C94C"/>
<path d="M127.594 24C125.204 24 123.256 23.2494 121.75 21.7481C120.253 20.2468 119.505 18.2468 119.505 15.7481V15.3162C119.505 13.6401 119.822 12.144 120.454 10.8278C121.087 9.50129 121.98 8.48329 123.135 7.77378C124.3 7.05398 125.626 6.69409 127.112 6.69409C129.341 6.69409 131.093 7.41388 132.369 8.85347C133.654 10.2931 134.296 12.3342 134.296 14.9769V16.7969H123.918C124.059 17.8869 124.481 18.7609 125.184 19.419C125.897 20.0771 126.795 20.4062 127.88 20.4062C129.557 20.4062 130.867 19.7841 131.811 18.5398L133.95 20.9923C133.297 21.9383 132.414 22.6787 131.299 23.2134C130.184 23.7378 128.949 24 127.594 24ZM127.097 10.3033C126.233 10.3033 125.53 10.6015 124.988 11.1979C124.456 11.7943 124.114 12.6478 123.964 13.7584H130.019V13.4036C129.999 12.4165 129.738 11.6555 129.236 11.1208C128.733 10.5758 128.021 10.3033 127.097 10.3033Z" fill="#F2C94C"/>
<path d="M145.94 11.1825C145.347 11.1003 144.825 11.0591 144.373 11.0591C142.726 11.0591 141.647 11.6298 141.135 12.7712V23.6915H136.782V7.00257H140.894L141.014 8.99229C141.888 7.46015 143.098 6.69409 144.644 6.69409C145.126 6.69409 145.578 6.76093 146 6.8946L145.94 11.1825Z" fill="#F2C94C"/>
<path d="M36.0197 15.1928C36.0197 13.5373 36.331 12.0617 36.9536 10.7661C37.5762 9.47044 38.4699 8.46787 39.6347 7.75836C40.8096 7.04885 42.1702 6.69409 43.7166 6.69409C45.9157 6.69409 47.7082 7.38304 49.0939 8.76093C50.4897 10.1388 51.2679 12.0103 51.4286 14.3753L51.4587 15.5167C51.4587 18.0771 50.7608 20.1337 49.365 21.6864C47.9693 23.2288 46.0965 24 43.7468 24C41.397 24 39.5192 23.2288 38.1134 21.6864C36.7176 20.144 36.0197 18.0463 36.0197 15.3933V15.1928ZM40.3728 15.5167C40.3728 17.1003 40.664 18.3136 41.2464 19.1568C41.8288 19.9897 42.6623 20.4062 43.7468 20.4062C44.8011 20.4062 45.6245 19.0694 46.217 18.2468C46.2131 16.5 43.7468 16.7969 43.7468 14.9769C43.7468 13.4242 46.2131 13 46.217 12C45.6245 11.1465 44.7911 10.3033 43.7166 10.3033C42.6522 10.3033 41.8288 10.7301 41.2464 11.5836C40.664 12.4267 40.3728 13.7378 40.3728 15.5167Z" fill="#F2C94C"/>
<path d="M18.7303 15.1928C18.7303 13.5373 19.0415 12.0617 19.6641 10.7661C20.2867 9.47044 21.1804 8.46787 22.3452 7.75836C23.5201 7.04885 24.8808 6.69409 26.4272 6.69409C28.6263 6.69409 30.4187 7.38304 31.8044 8.76093C33.2002 10.1388 33.9784 12.0103 34.1391 14.3753L34.1692 15.5167C34.1692 18.0771 33.4713 20.1337 32.0756 21.6864C30.6798 23.2288 28.807 24 26.4573 24C24.1075 24 22.2298 23.2288 20.8239 21.6864C19.4282 20.144 18.7303 18.0463 18.7303 15.3933V15.1928ZM23.0833 15.5167C23.0833 17.1003 23.3745 18.3136 23.9569 19.1568C24.5393 19.9897 25.3728 20.4062 26.4573 20.4062C27.5117 20.4062 28.3351 19.0694 28.9275 18.2468C28.9237 16.5 26.4573 16.7969 26.4573 14.9769C26.4573 13.4242 28.9237 13 28.9275 12C28.3351 11.1465 27.5016 10.3033 26.4272 10.3033C25.3627 10.3033 24.5393 10.7301 23.9569 11.5836C23.3745 12.4267 23.0833 13.7378 23.0833 15.5167Z" fill="#F2C94C"/>
</svg>
