<svg width="16" height="16" viewBox="0 0 16 16" fill="none" xmlns="http://www.w3.org/2000/svg">
<g clip-path="url(#clip0_33_1578)">
<path d="M8.00074 0C3.58266 0 0.00100708 3.58192 0.00100708 7.99984C0.00100708 12.4178 3.58266 16 8.00074 16C12.4188 16 16.0009 12.418 16.0009 7.99984C16.0009 3.58171 12.4188 0 8.00074 0ZM11.8037 5.75707L11.0439 6.51691L9.49717 4.97029L8.91039 5.55707L10.4571 7.10379L6.66341 10.8972L5.11679 9.35072L4.53002 9.93749L6.07663 11.4841L5.69861 11.8621L5.69141 11.8549C5.64949 11.9239 5.58133 11.9743 5.50037 11.9923L4.05807 12.3139C4.03647 12.3187 4.0145 12.3211 3.99279 12.3211C3.91407 12.3211 3.83759 12.2901 3.7809 12.2332C3.70815 12.1607 3.67786 12.0561 3.70026 11.9557L4.0217 10.5139C4.03983 10.433 4.09029 10.3646 4.15919 10.3228L4.15189 10.3155L10.257 4.21019C10.3464 4.12085 10.4918 4.12085 10.5813 4.21045L11.8038 5.43269C11.8933 5.52219 11.8933 5.66757 11.8037 5.75707Z" fill="#AAAAAA"/>
</g>
<defs>
<clipPath id="clip0_33_1578">
<rect width="16" height="16" fill="white"/>
</clipPath>
</defs>
</svg>
