<svg width="16" height="16" viewBox="0 0 16 16" fill="none" xmlns="http://www.w3.org/2000/svg">
<path d="M14.5619 0.528886C14.4243 0.331355 14.2391 0.186901 14.0067 0.0952654C13.8586 0.031891 13.7035 0.000148158 13.5413 0.000148158V0H2.45857C2.29645 0 2.14144 0.0317428 1.99335 0.0951173C1.76075 0.186679 1.57562 0.331318 1.43817 0.528738C1.30075 0.726158 1.23193 0.944617 1.23193 1.18437V14.8156C1.23193 15.0554 1.30075 15.2738 1.43817 15.4714C1.57562 15.6688 1.76075 15.8134 1.99335 15.9049C2.14129 15.9683 2.29645 16 2.45857 16C2.79003 16 3.08246 15.8836 3.33633 15.6511L7.99996 11.1671L12.6636 15.6512C12.9104 15.8765 13.203 15.9893 13.5413 15.9893C13.7176 15.9893 13.8727 15.9613 14.0067 15.9049C14.2391 15.8134 14.4243 15.6688 14.5618 15.4711C14.6992 15.2738 14.7679 15.0553 14.7679 14.8156V1.18452C14.768 0.944765 14.6991 0.726306 14.5619 0.528886Z" fill="#AAAAAA"/>
</svg>
