<svg width="16" height="16" viewBox="0 0 16 16" fill="none" xmlns="http://www.w3.org/2000/svg">
<g clip-path="url(#clip0_203_1380)">
<path d="M15.1763 6.22222H13.6794C13.4388 6.22222 13.2406 6.08978 13.1484 5.86756C13.0563 5.64533 13.1031 5.41126 13.2729 5.24119L14.3313 4.18311C14.4868 4.02756 14.5724 3.82044 14.5724 3.60059C14.5724 3.38044 14.4868 3.17363 14.3313 3.01778L12.9822 1.66874C12.6711 1.35763 12.1286 1.35704 11.8169 1.66874L10.7588 2.72681C10.6181 2.86756 10.4634 2.89689 10.3582 2.89689C10.2101 2.89689 10.0628 2.83881 9.95407 2.73719C9.87378 2.66193 9.77778 2.52859 9.77778 2.32059V0.823704C9.77778 0.369481 9.4083 0 8.95407 0H7.04593C6.5917 0 6.22222 0.369481 6.22222 0.823704V2.32059C6.22222 2.68148 5.92681 2.89689 5.64119 2.89689C5.5363 2.89689 5.38163 2.86726 5.24089 2.72681L4.18281 1.66874C3.87111 1.35704 3.32859 1.35763 3.01748 1.66874L1.66844 3.01778C1.51289 3.17333 1.42726 3.38044 1.42726 3.60059C1.42726 3.82044 1.51289 4.02726 1.66844 4.18311L2.72681 5.24119C2.89659 5.41126 2.94311 5.64533 2.85126 5.86756C2.75941 6.08978 2.56119 6.22222 2.32059 6.22222H0.823704C0.369481 6.22222 0 6.5917 0 7.04593V8.95348C0 9.408 0.369481 9.77778 0.823704 9.77778H2.32059C2.56119 9.77778 2.75941 9.91022 2.85156 10.1324C2.9437 10.3547 2.89689 10.5887 2.72711 10.7588L1.66874 11.8169C1.51319 11.9724 1.42756 12.1796 1.42756 12.3994C1.42756 12.6196 1.51319 12.8264 1.66874 12.9822L3.01778 14.3313C3.32919 14.6427 3.87141 14.6433 4.18311 14.3313L5.24119 13.2732C5.38193 13.1324 5.53659 13.1031 5.64178 13.1031C5.92711 13.1031 6.22252 13.3188 6.22252 13.6794V15.176C6.22222 15.6302 6.5917 16 7.04593 16H8.95378C9.408 16 9.77748 15.6302 9.77748 15.176V13.6794C9.77748 13.3185 10.0729 13.1031 10.3582 13.1031C10.4631 13.1031 10.6181 13.1327 10.7588 13.2732L11.8169 14.3313C12.1286 14.643 12.6711 14.6424 12.9822 14.3313L14.3313 12.9822C14.4868 12.8267 14.5724 12.6196 14.5724 12.3994C14.5724 12.1796 14.4868 11.9727 14.3313 11.8169L13.2729 10.7588C13.1031 10.5887 13.0566 10.3547 13.1484 10.1324C13.2403 9.91022 13.4388 9.77778 13.6794 9.77778H15.1763C15.6305 9.77778 16 9.408 16 8.95378V7.04593C16 6.5917 15.6305 6.22222 15.1763 6.22222ZM10.0741 8C10.0741 9.14341 9.14341 10.0741 8 10.0741C6.85659 10.0741 5.92593 9.14341 5.92593 8C5.92593 6.85659 6.85659 5.92593 8 5.92593C9.14341 5.92593 10.0741 6.85659 10.0741 8Z" fill="#AAAAAA"/>
</g>
<defs>
<clipPath id="clip0_203_1380">
<rect width="16" height="16" fill="white"/>
</clipPath>
</defs>
</svg>
