<svg width="14" height="14" viewBox="0 0 14 14" fill="none" xmlns="http://www.w3.org/2000/svg">
<g clip-path="url(#clip0_82_593)">
<path d="M13.878 13.286L10.4758 9.88381C11.3884 8.83459 11.941 7.46563 11.941 5.9694C11.941 2.67583 9.26206 0 5.9716 0C2.67803 0 0.00219727 2.67894 0.00219727 5.9694C0.00219727 9.25987 2.68113 11.9388 5.9716 11.9388C7.46783 11.9388 8.83679 11.3863 9.88601 10.4736L13.2882 13.8758C13.3689 13.9565 13.4776 14 13.5831 14C13.6887 14 13.7973 13.9596 13.878 13.8758C14.0394 13.7144 14.0394 13.4475 13.878 13.286ZM0.83723 5.9694C0.83723 3.13836 3.14056 0.838138 5.96849 0.838138C8.79953 0.838138 11.0998 3.14146 11.0998 5.9694C11.0998 8.79734 8.79953 11.1038 5.96849 11.1038C3.14056 11.1038 0.83723 8.80044 0.83723 5.9694Z" fill="#1D1D1D"/>
</g>
<defs>
<clipPath id="clip0_82_593">
<rect width="14" height="14" fill="white"/>
</clipPath>
</defs>
</svg>
