<svg width="20" height="16" viewBox="0 0 20 16" fill="none" xmlns="http://www.w3.org/2000/svg">
<path d="M19.6819 1.8613C19.2375 2.05081 18.7762 2.20031 18.3029 2.30855C18.8244 1.83189 19.2166 1.23569 19.4378 0.570221C19.501 0.380241 19.2864 0.215961 19.1081 0.31768C18.4496 0.693326 17.7403 0.97513 16.9998 1.15536C16.9569 1.16581 16.9125 1.17111 16.8681 1.17111C16.7332 1.17111 16.6021 1.12295 16.4989 1.03553C15.7111 0.367766 14.6979 0 13.646 0C13.1908 0 12.7312 0.0682352 12.28 0.20283C10.8819 0.619885 9.80309 1.72905 9.46464 3.0975C9.33766 3.61079 9.30328 4.12455 9.36238 4.62447C9.36916 4.68192 9.34093 4.72201 9.32352 4.74082C9.29294 4.77379 9.2496 4.79269 9.20459 4.79269C9.19957 4.79269 9.1944 4.79245 9.18928 4.79199C6.12888 4.51853 3.36914 3.1005 1.41842 0.799172C1.31895 0.681789 1.12819 0.696186 1.0489 0.826982C0.666901 1.45728 0.465026 2.17818 0.465026 2.91174C0.465026 4.03596 0.934653 5.09541 1.75039 5.86776C1.40735 5.78953 1.07533 5.66633 0.766911 5.50158C0.6177 5.42186 0.434111 5.52433 0.432014 5.68847C0.410656 7.35857 1.42734 8.84464 2.95038 9.51381C2.9197 9.51452 2.88903 9.51484 2.85831 9.51484C2.61689 9.51484 2.37245 9.49243 2.13186 9.4482C1.96382 9.41735 1.82266 9.57065 1.87483 9.72733C2.36918 11.2117 3.69804 12.3058 5.28827 12.5542C3.96848 13.4063 2.43155 13.8557 0.831911 13.8557L0.333222 13.8554C0.179573 13.8554 0.0496226 13.9518 0.0104668 14.0949C-0.028104 14.2359 0.0429422 14.3846 0.173966 14.4579C1.9765 15.4668 4.03255 16 6.12073 16C7.94858 16 9.65837 15.6511 11.2027 14.9632C12.6184 14.3324 13.8694 13.4308 14.921 12.2834C15.9006 11.2145 16.6667 9.98063 17.1978 8.61602C17.7041 7.31523 17.9717 5.92727 17.9717 4.60215V4.53902C17.9717 4.32625 18.0717 4.12605 18.2463 3.98976C18.9087 3.47249 19.4856 2.86358 19.9608 2.17996C20.0862 1.99945 19.8883 1.77322 19.6819 1.8613Z" fill="#76A9EA"/>
</svg>
