<svg width="20" height="20" viewBox="0 0 20 20" fill="none" xmlns="http://www.w3.org/2000/svg">
<g clip-path="url(#clip0_203_1366)">
<path d="M17.4573 11.7097C17.2282 8.72689 15.8394 6.85771 14.6143 5.20826C13.4798 3.68123 12.5 2.36255 12.5 0.417319C12.5 0.261069 12.4125 0.118257 12.2738 0.0466552C12.1346 -0.025376 11.9673 -0.0135791 11.8408 0.078374C10.0008 1.39501 8.46559 3.61412 7.9293 5.73146C7.55699 7.20556 7.50773 8.86275 7.50082 9.95724C5.8016 9.59431 5.41668 7.05259 5.41262 7.0249C5.39348 6.89306 5.31293 6.77834 5.19574 6.71568C5.07734 6.65384 4.93816 6.64935 4.81813 6.70877C4.72902 6.75189 2.63102 7.81791 2.50895 12.0742C2.50039 12.2158 2.5 12.3578 2.5 12.4998C2.5 16.6349 5.86465 19.9993 10 19.9993C10.0057 19.9997 10.0118 20.0005 10.0167 19.9993C10.0183 19.9993 10.0199 19.9993 10.022 19.9993C14.1471 19.9875 17.5 16.6276 17.5 12.4998C17.5 12.2919 17.4573 11.7097 17.4573 11.7097ZM10 19.166C8.62141 19.166 7.5 17.9715 7.5 16.5031C7.5 16.453 7.49961 16.4026 7.50324 16.3407C7.51992 15.7215 7.63754 15.2987 7.76652 15.0176C8.00824 15.5367 8.44035 16.014 9.14227 16.014C9.37258 16.014 9.55895 15.8276 9.55895 15.5974C9.55895 15.0042 9.57117 14.3198 9.71887 13.7021C9.85031 13.1545 10.1644 12.5718 10.5624 12.1047C10.7394 12.711 11.0845 13.2017 11.4214 13.6806C11.9036 14.3657 12.402 15.0741 12.4895 16.2821C12.4948 16.3537 12.5001 16.4258 12.5001 16.5031C12.5 17.9714 11.3786 19.166 10 19.166Z" fill="#AAAAAA"/>
</g>
<defs>
<clipPath id="clip0_203_1366">
<rect width="20" height="20" fill="white"/>
</clipPath>
</defs>
</svg>
